<?xml version="1.0" encoding="UTF-8" standalone="no"?>
<!-- Created with Inkscape (http://www.inkscape.org/) -->

<svg
   xmlns:dc="http://purl.org/dc/elements/1.1/"
   xmlns:cc="http://creativecommons.org/ns#"
   xmlns:rdf="http://www.w3.org/1999/02/22-rdf-syntax-ns#"
   xmlns:svg="http://www.w3.org/2000/svg"
   xmlns="http://www.w3.org/2000/svg"
   xmlns:sodipodi="http://sodipodi.sourceforge.net/DTD/sodipodi-0.dtd"
   xmlns:inkscape="http://www.inkscape.org/namespaces/inkscape"
   width="200"
   height="200"
   id="svg2"
   version="1.1"
   inkscape:version="0.48.1 "
   sodipodi:docname="New document 1">
  <defs
     id="defs4" />
  <sodipodi:namedview
     id="base"
     pagecolor="#ffffff"
     bordercolor="#666666"
     borderopacity="1.0"
     inkscape:pageopacity="0.0"
     inkscape:pageshadow="2"
     inkscape:zoom="1.4"
     inkscape:cx="-35.123927"
     inkscape:cy="72.236649"
     inkscape:document-units="px"
     inkscape:current-layer="layer1"
     showgrid="false"
     inkscape:window-width="1366"
     inkscape:window-height="706"
     inkscape:window-x="-8"
     inkscape:window-y="-8"
     inkscape:window-maximized="1" />
  <metadata
     id="metadata7">
    <rdf:RDF>
      <cc:Work
         rdf:about="">
        <dc:format>image/svg+xml</dc:format>
        <dc:type
           rdf:resource="http://purl.org/dc/dcmitype/StillImage" />
        <dc:title></dc:title>
      </cc:Work>
    </rdf:RDF>
  </metadata>
  <g
     inkscape:label="Layer 1"
     inkscape:groupmode="layer"
     id="layer1"
     transform="translate(0,-852.36218)">
    <g
       id="g3769"
       transform="matrix(1.9254334,0,0,1.9254334,-28.291209,-813.90802)">
      <g
         id="g3763"
         transform="translate(-40.459345,-8.5177569)">
        <path
           sodipodi:type="arc"
           style="fill:#000000;fill-opacity:1;stroke:#ffffff;stroke-width:2.29999995;stroke-linecap:round;stroke-linejoin:miter;stroke-miterlimit:4;stroke-opacity:1;stroke-dasharray:none;stroke-dashoffset:0"
           id="path2985"
           sodipodi:cx="107.83379"
           sodipodi:cy="48.729656"
           sodipodi:rx="9.8489876"
           sodipodi:ry="9.8489876"
           d="m 117.68278,48.729656 c 0,5.439446 -4.40954,9.848988 -9.84899,9.848988 -5.43944,0 -9.848984,-4.409542 -9.848984,-9.848988 0,-5.439445 4.409544,-9.848987 9.848984,-9.848987 5.43945,0 9.84899,4.409542 9.84899,9.848987 z"
           transform="translate(0,848.36218)" />
        <path
           transform="translate(0,907.94088)"
           d="m 117.68278,48.729656 c 0,5.439446 -4.40954,9.848988 -9.84899,9.848988 -5.43944,0 -9.848984,-4.409542 -9.848984,-9.848988 0,-5.439445 4.409544,-9.848987 9.848984,-9.848987 5.43945,0 9.84899,4.409542 9.84899,9.848987 z"
           sodipodi:ry="9.8489876"
           sodipodi:rx="9.8489876"
           sodipodi:cy="48.729656"
           sodipodi:cx="107.83379"
           id="path2987"
           style="fill:#000000;fill-opacity:1;stroke:#ffffff;stroke-width:2.29999995;stroke-linecap:round;stroke-linejoin:miter;stroke-miterlimit:4;stroke-opacity:1;stroke-dasharray:none;stroke-dashoffset:0"
           sodipodi:type="arc" />
        <path
           sodipodi:type="arc"
           style="fill:#000000;fill-opacity:1;stroke:#ffffff;stroke-width:2.29999995;stroke-linecap:round;stroke-linejoin:miter;stroke-miterlimit:4;stroke-opacity:1;stroke-dasharray:none;stroke-dashoffset:0"
           id="path2989"
           sodipodi:cx="107.83379"
           sodipodi:cy="48.729656"
           sodipodi:rx="9.8489876"
           sodipodi:ry="9.8489876"
           d="m 117.68278,48.729656 c 0,5.439446 -4.40954,9.848988 -9.84899,9.848988 -5.43944,0 -9.848984,-4.409542 -9.848984,-9.848988 0,-5.439445 4.409544,-9.848987 9.848984,-9.848987 5.43945,0 9.84899,4.409542 9.84899,9.848987 z"
           transform="translate(-33.84011,878.64646)" />
        <path
           transform="translate(0,852.36218)"
           style="fill:none;stroke:#000000;stroke-width:5.9000001;stroke-linecap:butt;stroke-linejoin:miter;stroke-miterlimit:4;stroke-opacity:1;stroke-dasharray:none"
           d="M 107.07617,105.55074 76.519055,74.993622 105.56094,45.951737"
           id="path2993"
           inkscape:connector-curvature="0" />
      </g>
      <path
         sodipodi:type="arc"
         style="fill:none;stroke:#000000;stroke-width:11.89999962;stroke-linecap:round;stroke-linejoin:miter;stroke-miterlimit:4;stroke-opacity:1;stroke-dasharray:none;stroke-dashoffset:0"
         id="path3776"
         sodipodi:cx="73.741135"
         sodipodi:cy="100.49998"
         sodipodi:rx="22.223356"
         sodipodi:ry="22.223356"
         d="m 88.026033,83.475899 c 9.402139,7.889331 10.628511,21.906841 2.73918,31.308981 -0.831589,0.99104 -1.74813,1.90759 -2.73918,2.73918"
         transform="matrix(0.60229636,0,0,0.60229636,19.224395,857.25922)"
         sodipodi:start="5.4105207"
         sodipodi:end="7.1558499"
         sodipodi:open="true" />
      <path
         sodipodi:end="7.1558499"
         sodipodi:start="5.4105207"
         transform="matrix(1.0541172,0,0,1.0541172,-10.603132,811.15246)"
         d="m 88.026033,83.475899 c 9.402139,7.889331 10.628511,21.906841 2.73918,31.308981 -0.831589,0.99104 -1.74813,1.90759 -2.73918,2.73918"
         sodipodi:ry="22.223356"
         sodipodi:rx="22.223356"
         sodipodi:cy="100.49998"
         sodipodi:cx="73.741135"
         id="path3778"
         style="fill:none;stroke:#000000;stroke-width:6.79936409;stroke-linecap:round;stroke-linejoin:miter;stroke-miterlimit:4;stroke-opacity:1;stroke-dasharray:none;stroke-dashoffset:0"
         sodipodi:type="arc"
         sodipodi:open="true" />
      <path
         sodipodi:open="true"
         sodipodi:type="arc"
         style="fill:none;stroke:#000000;stroke-width:5.1316328;stroke-linecap:round;stroke-linejoin:miter;stroke-miterlimit:4;stroke-opacity:1;stroke-dasharray:none;stroke-dashoffset:0"
         id="path3780"
         sodipodi:cx="73.741135"
         sodipodi:cy="100.49998"
         sodipodi:rx="22.223356"
         sodipodi:ry="22.223356"
         d="m 88.026033,83.475899 c 9.402139,7.889331 10.628511,21.906841 2.73918,31.308981 -0.831589,0.99104 -1.74813,1.90759 -2.73918,2.73918"
         transform="matrix(1.3966951,0,0,1.3966951,-28.868241,776.72339)"
         sodipodi:start="5.4105207"
         sodipodi:end="7.1558499" />
    </g>
  </g>
</svg>
